<svg xmlns="http://www.w3.org/2000/svg" xmlns:xlink="http://www.w3.org/1999/xlink" version="1.1" x="0px" y="0px" viewBox="0 0 100 125" style="enable-background:new 0 0 100 100;" xml:space="preserve"><g><path d="M76.859,41.16l1.297,55.176c0.038,0.958-0.315,1.891-0.979,2.582S75.596,100,74.637,100h-8.533   c-0.959,0-1.876-0.391-2.54-1.082s-1.018-1.624-0.979-2.582l1.297-55.176c-5.957-3.514-10.135-11.634-10.135-20.53   C53.746,8.757,61.189,0,70.37,0s16.624,8.757,16.624,20.63C86.994,29.526,82.816,37.646,76.859,41.16z M42.673,0   c-1.978,0-3.586,1.604-3.586,3.581v22.574c0,1.54-1.443,2.788-2.983,2.788c-1.539,0-2.893-1.248-2.893-2.788V3.581   C33.211,1.604,31.607,0,29.63,0c-1.978,0-3.581,1.604-3.581,3.581v22.574c0,1.54-1.354,2.788-2.893,2.788   c-1.54,0-2.982-1.248-2.982-2.788V3.581C20.173,1.604,18.564,0,16.586,0c-1.978,0-3.581,1.604-3.581,3.581c0,0,0,5.176,0,17.049   c0,8.936,4.216,17.09,10.216,20.577l-1.378,55.129c-0.039,0.958,0.315,1.891,0.979,2.582S24.404,100,25.363,100h8.533   c0.959,0,1.876-0.391,2.541-1.082c0.664-0.691,1.018-1.624,0.979-2.582l-1.378-55.129c6-3.487,10.216-11.641,10.216-20.577   c0-10.892,0-17.049,0-17.049C46.254,1.604,44.651,0,42.673,0z"/></g><text x="0" y="115" fill="#000000" font-size="5px" font-weight="bold" font-family="'Helvetica Neue', Helvetica, Arial-Unicode, Arial, Sans-serif">Created by b farias</text><text x="0" y="120" fill="#000000" font-size="5px" font-weight="bold" font-family="'Helvetica Neue', Helvetica, Arial-Unicode, Arial, Sans-serif">from the Noun Project</text></svg>