<svg xmlns="http://www.w3.org/2000/svg" xmlns:xlink="http://www.w3.org/1999/xlink" version="1.1" x="0px" y="0px" viewBox="0 0 100 125" enable-background="new 0 0 100 100" xml:space="preserve"><g><path d="M50.773,19.52c-3.658,0-6.909,1.461-9.266,3.818c-2.358,2.358-3.903,5.691-3.903,9.267c0,3.657,1.544,6.908,3.903,9.266   c2.357,2.358,5.608,3.819,9.266,3.819c3.576,0,6.908-1.461,9.266-3.819c2.357-2.358,3.821-5.609,3.821-9.266   c0-3.577-1.465-6.909-3.821-9.267C57.681,20.981,54.349,19.52,50.773,19.52z M49.878,34.23l-1.951-4.306l11.786-2.116L49.878,34.23   z"/><path d="M87.756,11.066v-0.082c-1.87-1.871-4.472-3.008-7.317-3.008H19.478c-2.845,0-5.445,1.136-7.315,3.008v0.082   c-1.869,1.87-3.007,4.469-3.007,7.232v63.32c0,2.843,1.138,5.446,3.007,7.318c1.871,1.948,4.471,3.088,7.315,3.088H80.44   c2.845,0,5.447-1.14,7.317-3.088h0.08c1.87-1.871,3.008-4.474,3.008-7.318v-63.32C90.845,15.535,89.706,12.936,87.756,11.066z    M62.233,44.065h-0.081c-2.926,2.927-6.909,4.713-11.379,4.713c-4.471,0-8.535-1.786-11.462-4.713   c-2.927-2.926-4.714-6.991-4.714-11.46c0-4.47,1.788-8.454,4.714-11.381v-0.08c2.927-2.927,6.991-4.713,11.462-4.713   c4.39,0,8.453,1.786,11.379,4.713h0.081c2.926,2.926,4.716,6.991,4.716,11.461C66.948,37.074,65.159,41.059,62.233,44.065z"/></g><text x="0" y="115" fill="#000000" font-size="5px" font-weight="bold" font-family="'Helvetica Neue', Helvetica, Arial-Unicode, Arial, Sans-serif">Created by Pedro Santos</text><text x="0" y="120" fill="#000000" font-size="5px" font-weight="bold" font-family="'Helvetica Neue', Helvetica, Arial-Unicode, Arial, Sans-serif">from the Noun Project</text></svg>