<svg xmlns="http://www.w3.org/2000/svg" xmlns:xlink="http://www.w3.org/1999/xlink" version="1.1" x="0px" y="0px" viewBox="0 0 126.308 148.41" enable-background="new 0 0 126.308 118.728" xml:space="preserve"><path d="M123.962,99.037c-0.082-0.076-0.172-0.116-0.246-0.181L100.929,76.46l-5.749-5.648c5.875-12.929,5.905-28.35-1.279-41.82  C81.632,6.015,52.957-2.707,29.979,9.555c-0.486,0.257-0.944,0.549-1.418,0.826c-7.41,4.288-13.254,10.305-17.261,17.284  c-2.663-1.367-4.591-2.553-4.868-2.73c0.261,0.17,0.083,0.008-0.245-0.225c-0.237-0.198-0.505-0.352-0.798-0.482  c-0.11-0.056-0.229-0.103-0.324-0.135c-0.253-0.079-0.514-0.11-0.767-0.118c-0.063-0.008-0.11-0.004-0.182-0.004  c-0.221,0.004-0.442,0.027-0.656,0.075c-0.024,0.008-0.047,0.008-0.071,0.016c-1.035,0.257-1.92,1.027-2.256,2.134  c-0.13,0.407-0.154,0.822-0.118,1.225c0,0-0.012,0.012-0.004,0.016c0,0,0,0,0,0.008c0.008,0.355,0.047,0.735,0.142,1.138  L5.259,46.24l1.284,5.544l1.142,4.892l0.367,1.572c0.751,3.265,3.375,4.062,5.825,1.771l5.469-5.109l1.549-1.454l3.563-3.331  l10.954-10.246l0.707-0.66c0.083-0.079,0.139-0.158,0.209-0.237l0.459-0.451l-0.032-0.008c0.285-0.324,0.53-0.695,0.664-1.13  c0.036-0.115,0.048-0.229,0.071-0.34c0.213-0.846,0.047-1.651-0.482-2.331c-0.391-0.581-0.964-1.043-1.684-1.261  c0,0-4.259,0.296-10.384-0.929c1.415-2.062,3.066-3.975,4.947-5.702c1.999-1.829,4.252-3.449,6.749-4.781  c4.687-2.497,9.705-3.746,14.676-3.872c12.131-0.312,24.001,6.069,30.094,17.485c7.713,14.462,3.564,32.133-9.033,41.802  c-0.438,0.332-0.877,0.66-1.327,0.973c-0.174,0.118-0.348,0.236-0.521,0.352c-0.11,0.079-0.229,0.15-0.348,0.225  c-0.593,0.384-1.21,0.735-1.834,1.087c-9.049,4.991-20.302,5.698-30.315,0.894c-1.304-0.629-2.545-1.344-3.73-2.118  c-0.34-0.222-0.684-0.45-1.019-0.688c-0.245-0.079-0.498-0.135-0.771-0.135c-0.447,0.008-0.857,0.139-1.209,0.355l-0.455,0.36  l-7.239,5.643l-0.829,0.644c-0.34,0.411-0.546,0.929-0.546,1.506c0.008,0.485,0.158,0.937,0.411,1.312  c0.355,0.289,0.719,0.577,1.083,0.857c2.505,1.917,5.231,3.611,8.183,5.026c10.437,5.011,21.809,5.82,32.225,3.13  c0.031,0,0.063,0.016,0.103,0.016c0.442-0.119,0.89-0.237,1.328-0.363c3.026-0.886,6.006-2.079,8.898-3.62  c1.165-0.624,2.284-1.3,3.382-2.007c0.15-0.095,0.305-0.189,0.455-0.289c0.32-0.209,0.628-0.431,0.944-0.644  c0.11-0.078,0.216-0.156,0.325-0.232l4.841,4.768l22.066,21.671c0.049,0.05,0.09,0.134,0.14,0.189  c3.776,3.76,10.697,2.926,15.472-1.867C126.878,109.723,127.713,102.788,123.962,99.037z"/><text x="0" y="133.728" fill="#000000" font-size="5px" font-weight="bold" font-family="'Helvetica Neue', Helvetica, Arial-Unicode, Arial, Sans-serif">Created by Leonardo Schneider</text><text x="0" y="138.728" fill="#000000" font-size="5px" font-weight="bold" font-family="'Helvetica Neue', Helvetica, Arial-Unicode, Arial, Sans-serif">from the Noun Project</text></svg>